<svg width="532" height="152" viewBox="0 0 532 152" fill="none" xmlns="http://www.w3.org/2000/svg">
<g filter="url(#filter0_dd_5623_6649)">
<path d="M29.9771 21.2652C29.9771 17.6108 34.0009 15.3867 37.0953 17.3306L61.3113 32.5432C64.3156 34.4305 68.1323 34.4426 71.1484 32.5743L95.8837 17.2527C98.9791 15.3353 102.977 17.5616 102.977 21.2028V55.8422C102.977 69.6667 95.6642 82.4598 83.7519 89.4748L71.1927 96.8708C68.2825 98.5846 64.6716 98.5846 61.7614 96.8708L49.2022 89.4748C37.2899 82.4598 29.9771 69.6667 29.9771 55.8422V21.2652Z" fill="url(#paint0_linear_5623_6649)"/>
</g>
<mask id="mask0_5623_6649" style="mask-type:alpha" maskUnits="userSpaceOnUse" x="29" y="16" width="74" height="83">
<path d="M29.9771 21.2652C29.9771 17.6108 34.0009 15.3867 37.0953 17.3306L61.3113 32.5432C64.3156 34.4305 68.1323 34.4426 71.1484 32.5743L95.8837 17.2527C98.9791 15.3353 102.977 17.5616 102.977 21.2028V55.8422C102.977 69.6667 95.6642 82.4598 83.7519 89.4748L71.1927 96.8708C68.2825 98.5846 64.6716 98.5846 61.7614 96.8708L49.2022 89.4748C37.2899 82.4598 29.9771 69.6667 29.9771 55.8422V21.2652Z" fill="url(#paint1_linear_5623_6649)"/>
</mask>
<g mask="url(#mask0_5623_6649)">
<path d="M68.8114 58.5529C67.4926 60.1244 65.0746 60.1244 63.7557 58.5529L30.4783 18.9037C28.0976 16.0671 31.4764 12.0635 34.6728 13.9337L64.617 31.454C65.6464 32.0563 66.9208 32.0563 67.9502 31.4539L97.8935 13.9338C101.09 12.0636 104.469 16.0672 102.088 18.9038L68.8114 58.5529Z" fill="url(#paint3_linear_5623_6649)"/>
</g>
<path d="M464.771 27.2852H481.639L497.938 67.4268L514.845 27.2852H531.283L506.407 86.2441H488.762L464.771 29.1309V86.2422H448.442V79.4326C446.967 81.2119 445.251 82.6792 443.292 83.832C439.639 86.0238 435.218 87.1191 430.031 87.1191C424.478 87.1191 419.474 85.8775 415.017 83.3936C410.561 80.8366 407.017 77.2931 404.387 72.7637C401.83 68.2341 400.551 62.9005 400.551 56.7637C400.551 50.5537 401.83 45.183 404.387 40.6533C407.017 36.1238 410.561 32.6168 415.017 30.1328C419.474 27.6488 424.478 26.4073 430.031 26.4072C434.999 26.4072 439.346 27.5036 443.072 29.6953C444.783 30.702 446.317 31.9472 447.674 33.4316V4.92773H464.771V27.2852ZM396.674 86.2461H379.579V27.2871H396.674V86.2461ZM432.99 40.4346C430.141 40.4346 427.584 41.0922 425.319 42.4072C423.054 43.7223 421.227 45.5852 419.839 47.9961C418.524 50.407 417.867 53.3299 417.867 56.7637C417.867 60.1242 418.524 63.0464 419.839 65.5303C421.227 67.9412 423.054 69.8041 425.319 71.1191C427.584 72.4342 430.141 73.0918 432.99 73.0918C435.766 73.0918 438.286 72.4342 440.551 71.1191C442.816 69.8041 444.606 67.9412 445.921 65.5303C447.309 63.0464 448.003 60.1242 448.003 56.7637C448.003 53.3299 447.31 50.407 445.921 47.9961C444.606 45.5852 442.816 43.7223 440.551 42.4072C438.286 41.0922 435.766 40.4346 432.99 40.4346ZM388.126 0C391.268 3.76671e-06 393.825 0.876522 395.797 2.62988C397.77 4.31024 398.756 6.50189 398.756 9.20508C398.756 12.0544 397.77 14.4286 395.797 16.3281C393.898 18.1546 391.341 19.0684 388.126 19.0684C384.985 19.0684 382.428 18.1546 380.456 16.3281C378.483 14.5017 377.497 12.2372 377.497 9.53418C377.497 6.83099 378.483 4.56573 380.456 2.73926C382.428 0.912912 384.985 0 388.126 0Z" fill="#0094F0"/>
<path d="M346.633 87.1227C341.665 87.1227 337.318 86.0269 333.592 83.8351C329.866 81.6433 326.943 78.3191 324.825 73.8625C322.779 69.3328 321.756 63.6342 321.756 56.7667C321.756 49.8261 322.743 44.1275 324.715 39.6709C326.688 35.2143 329.537 31.8901 333.263 29.6983C336.989 27.5065 341.446 26.4106 346.633 26.4106C352.185 26.4106 357.153 27.6892 361.537 30.2462C365.994 32.7303 369.5 36.2371 372.057 40.7668C374.688 45.2964 376.003 50.6297 376.003 56.7667C376.003 62.9767 374.688 68.3466 372.057 72.8762C369.5 77.4059 365.994 80.9127 361.537 83.3967C357.153 85.8807 352.185 87.1227 346.633 87.1227ZM311.784 112.506V27.2874H328.112V39.3421L327.784 56.8763L328.88 74.3009V102.506L311.784 112.506ZM343.674 73.0954C346.523 73.0954 349.044 72.4379 351.236 71.1228C353.5 69.8077 355.29 67.9447 356.605 65.5338C357.994 63.0498 358.688 60.1274 358.688 56.7667C358.688 53.3329 357.994 50.4106 356.605 47.9996C355.29 45.5887 353.5 43.7256 351.236 42.4106C349.044 41.0955 346.523 40.438 343.674 40.438C340.825 40.438 338.268 41.0955 336.003 42.4106C333.738 43.7256 331.948 45.5887 330.633 47.9996C329.318 50.4106 328.66 53.3329 328.66 56.7667C328.66 60.1274 329.318 63.0498 330.633 65.5338C331.948 67.9447 333.738 69.8077 336.003 71.1228C338.268 72.4379 340.825 73.0954 343.674 73.0954Z" fill="white"/>
<path d="M281.748 87.1227C275.026 87.1227 269.109 85.8077 263.994 83.1775C258.953 80.5474 255.045 76.9675 252.268 72.4379C249.492 67.8351 248.104 62.6114 248.104 56.7667C248.104 50.8489 249.456 45.6252 252.159 41.0955C254.935 36.4928 258.698 32.9129 263.447 30.3558C268.195 27.7257 273.565 26.4106 279.556 26.4106C285.328 26.4106 290.515 27.6526 295.118 30.1367C299.793 32.5476 303.483 36.0544 306.186 40.6572C308.889 45.1868 310.241 50.6297 310.241 56.9859C310.241 57.6434 310.204 58.4105 310.131 59.2872C310.058 60.0909 309.985 60.858 309.912 61.5886H262.022V51.616H300.926L294.351 54.5749C294.351 51.5064 293.73 48.8398 292.488 46.5749C291.246 44.3101 289.529 42.5567 287.337 41.3147C285.145 39.9996 282.588 39.3421 279.666 39.3421C276.743 39.3421 274.15 39.9996 271.885 41.3147C269.693 42.5567 267.976 44.3466 266.734 46.6845C265.492 48.9494 264.871 51.6526 264.871 54.7941V57.4242C264.871 60.6388 265.565 63.4881 266.953 65.9721C268.415 68.3831 270.424 70.2461 272.981 71.5612C275.611 72.8032 278.679 73.4242 282.186 73.4242C285.328 73.4242 288.067 72.9493 290.405 71.9995C292.816 71.0497 295.008 69.6251 296.981 67.7255L306.077 77.5885C303.373 80.657 299.976 83.0314 295.885 84.7118C291.793 86.3191 287.081 87.1227 281.748 87.1227Z" fill="white"/>
<path d="M220.44 87.1227C213.719 87.1227 207.801 85.8077 202.687 83.1775C197.646 80.5474 193.737 76.9675 190.961 72.4379C188.185 67.8351 186.796 62.6114 186.796 56.7667C186.796 50.8489 188.148 45.6252 190.851 41.0955C193.627 36.4928 197.39 32.9129 202.139 30.3558C206.888 27.7257 212.257 26.4106 218.248 26.4106C224.02 26.4106 229.207 27.6526 233.81 30.1367C238.486 32.5476 242.175 36.0544 244.878 40.6572C247.582 45.1868 248.933 50.6297 248.933 56.9859C248.933 57.6434 248.897 58.4105 248.824 59.2872C248.75 60.0909 248.677 60.858 248.604 61.5886H200.714V51.616H239.618L233.043 54.5749C233.043 51.5064 232.422 48.8398 231.18 46.5749C229.938 44.3101 228.221 42.5567 226.029 41.3147C223.837 39.9996 221.28 39.3421 218.358 39.3421C215.436 39.3421 212.842 39.9996 210.577 41.3147C208.385 42.5567 206.668 44.3466 205.426 46.6845C204.184 48.9494 203.563 51.6526 203.563 54.7941V57.4242C203.563 60.6388 204.258 63.4881 205.646 65.9721C207.107 68.3831 209.116 70.2461 211.673 71.5612C214.303 72.8032 217.372 73.4242 220.878 73.4242C224.02 73.4242 226.76 72.9493 229.098 71.9995C231.509 71.0497 233.7 69.6251 235.673 67.7255L244.769 77.5885C242.066 80.657 238.668 83.0314 234.577 84.7118C230.486 86.3191 225.773 87.1227 220.44 87.1227Z" fill="white"/>
<path d="M150.457 87.1241C144.904 87.1241 139.899 85.8821 135.443 83.3981C130.986 80.841 127.443 77.2976 124.813 72.768C122.256 68.2383 120.977 62.905 120.977 56.768C120.977 50.558 122.256 45.1882 124.813 40.6585C127.443 36.1288 130.986 32.622 135.443 30.138C139.899 27.654 144.904 26.412 150.457 26.412C155.425 26.412 159.772 27.5079 163.498 29.6996C167.224 31.8914 170.109 35.2156 172.155 39.6722C174.201 44.1288 175.224 49.8274 175.224 56.768C175.224 63.6356 174.237 69.3342 172.265 73.8638C170.292 78.3204 167.443 81.6446 163.717 83.8364C160.064 86.0282 155.644 87.1241 150.457 87.1241ZM153.415 73.0967C156.192 73.0967 158.712 72.4392 160.977 71.1241C163.242 69.8091 165.032 67.9461 166.347 65.5351C167.735 63.0511 168.429 60.1287 168.429 56.768C168.429 53.3343 167.735 50.4119 166.347 48.0009C165.032 45.59 163.242 43.727 160.977 42.4119C158.712 41.0969 156.192 40.4393 153.415 40.4393C150.566 40.4393 148.009 41.0969 145.744 42.4119C143.479 43.727 141.653 45.59 140.265 48.0009C138.95 50.4119 138.292 53.3343 138.292 56.768C138.292 60.1287 138.95 63.0511 140.265 65.5351C141.653 67.9461 143.479 69.8091 145.744 71.1241C148.009 72.4392 150.566 73.0967 153.415 73.0967ZM168.867 86.2474V74.1926L169.196 56.6584L168.1 39.2338V4.93262H185.196V86.2474H168.867Z" fill="white"/>
<defs>
<filter id="filter0_dd_5623_6649" x="29.9771" y="16.5488" width="73" height="81.6074" filterUnits="userSpaceOnUse" color-interpolation-filters="sRGB">
<feFlood flood-opacity="0" result="BackgroundImageFix"/>
<feBlend mode="normal" in="SourceGraphic" in2="BackgroundImageFix" result="shape"/>
</filter>
<linearGradient id="paint0_linear_5623_6649" x1="102.977" y1="56.2533" x2="29.9771" y2="56.2533" gradientUnits="userSpaceOnUse">
<stop offset="0.466346" stop-color="#0073FF"/>
<stop offset="0.533654" stop-color="#4AB9FF"/>
</linearGradient>
<linearGradient id="paint1_linear_5623_6649" x1="102.977" y1="56.2533" x2="29.9771" y2="56.2533" gradientUnits="userSpaceOnUse">
<stop offset="0.466346" stop-color="#0073FF"/>
<stop offset="0.533654" stop-color="#0DA2FF"/>
</linearGradient>
<linearGradient id="paint3_linear_5623_6649" x1="84.5861" y1="59.7319" x2="84.5861" y2="13.4536" gradientUnits="userSpaceOnUse">
<stop stop-color="#62C2FF"/>
<stop offset="1" stop-color="#0DA2FF"/>
</linearGradient>
</defs>
</svg>
